<?xml version="1.0" encoding="utf-8"?>
<!-- Generator: Adobe Illustrator 21.0.0, SVG Export Plug-In . SVG Version: 6.00 Build 0)  -->
<svg version="1.1" id="Ebene_1" xmlns="http://www.w3.org/2000/svg" xmlns:xlink="http://www.w3.org/1999/xlink" x="0px" y="0px"
	 viewBox="0 0 217.8 163" style="enable-background:new 0 0 217.8 163;" xml:space="preserve">
<style type="text/css">
	.st0{fill:#A73231;}
	.st1{opacity:0.42;}
	.st2{fill:#231F20;}
</style>
<g>
	<g>
		<g>
			<g>
				<g>
					<path class="st0" d="M217.8,11.5c-0.3-0.5-1.4-0.9-1.6-0.1l1.4,1.5L217.8,11.5z"/>
					<path class="st0" d="M211.9,14.6c0.4,1.3,1.3,3.1,3.2,3.5c-1.2-1.8-0.4-1.6-1.9-3.6c0.2-0.8,1.3-0.9,1.8-0.5
						c-0.3-0.5,1-0.9,0.1-1.9c-1.9,0.2-2.6,1.3-2.2,3.2C212.5,15.3,212.2,14.8,211.9,14.6z"/>
					<path class="st0" d="M169.9,83.4l0.5-0.3C170.2,83.1,170,83.2,169.9,83.4z"/>
					<path class="st0" d="M144.6,126.4c0.1-0.4,0-0.6-0.1-0.7C144.5,126.1,144.4,126.4,144.6,126.4z"/>
					<path class="st0" d="M138.6,132.7c0.1-0.1,0.2-0.2,0.4-0.4C138.7,132.4,138.5,132.6,138.6,132.7z"/>
					<path class="st0" d="M169.9,83.4l-1.2,0.9C169.2,84.6,169.5,83.9,169.9,83.4z"/>
					<path class="st0" d="M210.6,26.6c0.1-0.3,0-0.6-0.1-0.9c0,0.2-0.1,0.5-0.1,0.7C210.5,26.5,210.6,26.5,210.6,26.6z"/>
					<path class="st0" d="M179.2,63.4l0.2-0.4c-0.1-0.2-0.3-0.4-0.5-0.7L179.2,63.4z"/>
					<path class="st0" d="M187.2,48.5c-0.3,0.3,1.2,1.2,1.7,1.7c-0.5-0.5-0.7-0.9-0.6-1.3C188,48.8,187.7,48.6,187.2,48.5z"/>
					<path class="st0" d="M202.8,26.6v-0.5C202.9,26.2,202.8,26.4,202.8,26.6z"/>
					<path class="st0" d="M173,73.7c-0.2-0.1-0.5-0.2-0.6-0.2C172.6,73.7,172.8,73.7,173,73.7z"/>
					<path class="st0" d="M194.7,1.7c0,0.1,0,0.2,0,0.3C194.8,1.8,194.9,1.7,194.7,1.7z"/>
					<path class="st0" d="M214.3,10l-0.3,0.1c0,0.3-0.1,0.6-0.1,0.9L214.3,10z"/>
					<path class="st0" d="M129.1,145.3L129.1,145.3C129.2,144.8,129.1,145,129.1,145.3z"/>
					<path class="st0" d="M53.7,63.2c-0.5,2.2-3-1.3-3.2,1.6C50.9,64.3,53.8,65.5,53.7,63.2z"/>
					<path class="st0" d="M210.2,26.9c-0.1,0.2-0.2,0.4-0.3,0.6C210.1,27.3,210.2,27.1,210.2,26.9z"/>
					<path class="st0" d="M50.4,64.8L50.4,64.8v0.3C50.4,65,50.4,65,50.4,64.8z"/>
					<path class="st0" d="M103.5,147.4c0.1,0.3,0.2,0.5,0.4,0.7C103.8,148,103.7,147.7,103.5,147.4z"/>
					<path class="st0" d="M128.9,149.8l-0.4-0.2C128.7,149.7,128.8,149.8,128.9,149.8z"/>
					<path class="st0" d="M97.7,145.5c-0.1-0.4,0.1-0.6-0.4-0.9c-0.1,0.1-0.1,0.2-0.1,0.2C97.5,144.8,97.7,145,97.7,145.5z"/>
					<path class="st0" d="M90.6,132.9c-0.1,0.1-0.1,0.3-0.2,0.4c0.1,0.1,0.2,0.2,0.3,0.4L90.6,132.9z"/>
					<path class="st0" d="M150.8,2.5c0.3,0.5,0.5,1,0.7,1.5C151.2,2.8,153.4,2.4,150.8,2.5z"/>
					<path class="st0" d="M209.8,26.2c0.3,0.3,0.5,0.5,0.4,0.7c0.1-0.2,0.1-0.3,0.2-0.5C210.2,26.3,210,26.1,209.8,26.2z"/>
					<path class="st0" d="M85.8,151.5l-0.9-2.1C85.1,150,85.4,150.8,85.8,151.5z"/>
					<path class="st0" d="M47.1,2.7l0.5-0.2C47.4,2.5,47.2,2.5,47.1,2.7z"/>
					<path class="st0" d="M81.3,143.6c0.3-0.6,0.4-1.2,0.4-1.7c-0.2,0-0.3-0.1-0.5,0L81.3,143.6z"/>
					<path class="st0" d="M151.5,4L151.5,4L151.5,4z"/>
					<path class="st0" d="M166.6,0c-2.2,0-1,2.2-1.5,3.4c-2.6,0.6-1.2-1.6-2.1-2.8c-1.6,0.6-2.9,2.6-4.1,2.5c-0.1-0.4-0.3-0.5-0.1-1
						c-1.7,1.8-5.1,0.1-7.1,2.3c-0.1-0.2-0.2-0.4-0.3-0.5c0.3,1.1,0.4,2.2,0.3,3c-1,0-1.8,1.4-2.2,0c0.6,0,0.7-0.5,0.9-1l-1,0.6
						c-0.9-2.1,1.4-0.7,1.4-2.3c-2,0.7-4.3,2.4-5.9,1.8c-0.3-2,3.6-0.7,1.5-2.5l2.4,0.8c-1.8-3.2,1.4,0.2-0.2-3.2
						c-3.1-0.6-3.5,1-6.6,0.4c-0.7,1.1,0.2,1.7-0.5,2.8c-4.4,2-3.5-5.1-6.8-2.4c-0.8,1.4-1.2,3.9-3.5,2.6l0.8-2.3
						c-3-0.2-1.7,3.3-4.9,1.8c0.6-0.9,2.4-0.8,1.9-1c-2.1-1.8-1.5,1.3-3,1.3l-0.3-2c-3.2,0.3-6.8,1.8-10.3,2.2
						c0.2-0.6,0.8-1.2,0-1.9c-4.5,1-9.6-0.2-14-1.5l-1.7,1.8c-0.4,0-0.7-0.8-0.3-1.1c-1.7-0.7-0.1,1.1-0.9,1.8c-1,0.1-1.3-1-0.7-1.5
						c-3,1.5-8.5,3.2-11.7,1.3l0.6-0.5c-2.5-0.7-2.8,3.6-5,2l0.4-0.3c-5.3-0.8-11.2,0.8-15.3-1.8c-0.8,2.5-5.3-1.1-5.6,2.4
						c-3-1.8-2.2-2.4-6.4-3.6c-1.1-0.2-1.7,2.2-3.1,2.6V2.4l-1.9,1.9l-1-2.2l-1.3,0.5c0.5,0.1,1.1,0.8,1,1.4c-2.1,0.8-5-1.3-5.1-2.2
						l-4.9,1.6c0.1-0.7,0.9-1,1.6-1.5c-2.6,1.9-0.5-1.9-2.9-0.2C37.5,2.1,37,2.8,37,3.2c-0.6-0.6-1.6-0.8-2.7-0.9
						c-0.5,0-1.1,0-1.7,0c-0.7,0.1-1.5,0.2-2.1,0.3c0.2-0.4,0.4-0.8,0.6-1.3c-3.4-0.2-7.1,0-10.6,0.2c-3.6,0.2-7,0.4-10.7,0.4
						c3.4,0.6,5.1,2.8,3.6,3c-1.1-0.7-2.1-1.3-3.3-2c0.1,0.6,0.9,0.8,1.5,1s1.1,0.5,0.9,1.2C10,4.9,7.7,2.9,8.4,2.2
						C7.6,2.4,6.9,2.7,6.2,2.9C5.1,2.3,5.4,2,4.5,1.3C4.7,1.9,2.3,1.4,0,1c0.1,1,0.7,2.3,2.8,4L2,4.7c1.9,3.4,3.6,6,5.1,8.3
						s2.9,4.4,4.5,7.1c2,0,2.7,2.1,4.8,3.1c0.3,0.9,0.6,1.8,1,2.8c0.2,0.5,0.4,1,0.5,1.5c0.1,0.3,0.2,0.7,0.2,1
						c0.3,1.4,0.8,2.7,1.6,4c1.7,1.4,1.5-0.2,2.9,0.1c-1.3,0.9,0.3,3.4-1.4,2.6c2,2.9,2.5,3.8,5.8,7c0.3-0.7,0.3-1.3,0.9-1.4
						c0.6,0.6,0.3,1.9-0.4,2.2l-0.2-0.1c4.5,3.2,1.8,12.3,6.5,14.2L33.6,57l3.5,2.8c0.7,1.8-1.6-0.4-1.7,1.3
						c4.4,2.6,3.1,6.3,6.4,8.7c-2.5,4.7,5.2,8.6,4.6,13.4l0.8-0.7c1.4,0.3,0.1,1.3,0.2,2.1c0.7-0.5,0.3-1.4,1.1-1.2
						c5.3,6.7,7.2,15.9,10.6,23.8c1.3,2.9,5.7-1.2,5.4,3.5h-2.3c5.2,4.4,6.3,11.4,11.1,15.8c-0.6-0.1-1.1,0.2-1.4-0.3
						c-0.6,1.9,2.3,4.3,3.4,3.7c0.4,0.9-0.8,0.7-1,1.5c-0.1,1.6,3.2,2,2.3,3.3c-0.1,0.2-0.6-0.1-0.8-0.2c1,0.4,1.8,3.6,2.9,2
						c0.5,2.4,2.8,3.5,2.9,5.6c2.2,0.1,1.2,3.9,3.7,3c-2.4,1.2,0.1,4.6,1.9,5.3c-1,0-0.1,1.5-1.4,1.6c0.4,0.7,0.9,1.4,1.5,1.7
						c0.1,0,0.1,0.1,0.2,0.1c0.1,0.1,0.2,0.1,0.3,0.2c0.2,0.1,0.3,0.2,0.5,0.2c0.3,0.1,0.6,0,0.8-0.3c0,1.8,0.6,3.4,1.5,4.6
						c0.8,1.3,1.8,2.2,2.6,3c2.2-0.4,3.6-0.4,4.5,1.3c1.2-0.2,2.3-0.4,3.5-0.5c0.5-0.1,1.1-0.2,1.6-0.2l0.9-0.2
						c1.2-0.3,2.4-0.6,3.6-0.8c2.3-0.5,4.6-0.9,6.9-1.2c-0.2,2.7-5,0.3-4.8,3.1c4.3-1.1,6.7-3.4,11-2.8c1.1,0.4-0.6,1.2-1,1.6
						c2.1-0.6,4.2-0.5,6.2-0.5c0.5,0,1,0,1.5,0h1l1.2-0.1c1.6-0.1,3.2-0.3,4.5-0.7c0.1,0.3-0.5,0.5-1,0.7c1.2-0.1,3.1,0.4,2.3-0.8
						l-1,0.3c-0.8-0.5-0.8-1.1-0.5-1.6s0.8-1.1,1.3-1.5c0.1-1.5,0.1-2.6-0.1-3c0.8,2.2,1.5,1.4,2.3,0.6c0.4-0.4,0.8-0.7,1.3-0.6
						c0.4,0.1,0.9,0.6,1.4,2.1c0.2-0.9,0.3-2.1-0.5-2.5c0.7-0.8,1.3-0.9,1.5,0.7c0.2-0.5,0.4-1,0.5-1.4s0.2-0.8,0.1-0.9
						c0-0.4-0.1-0.7-0.2-1c-0.2-0.5-0.3-1,0.3-2.1c0.5,0.3,0.5,0.8,1,1.4c-0.4-1.6-0.8-3.3,0.6-4.8c0.3,0.3,0.8,0.3,0.5,0.8
						c1.6-3.2,0.2-6.8,3.1-9.6c1.7,2.3,1.4-0.7,3.4,0.2l0.4-2.1l-1.4,0.2c0.9-1.6,0.3-3.8,1.7-4.8l0.1,1.6l1.3-3.2l-1.7,1.3
						c-0.1-2.2-2.6-1.2-0.8-3c0,0.5,0.9-1.6,2.5-1.8l0,0c-0.2-1.1-0.4-2.3,0.8-3.2c0.8,0,2,1.5,2.6,1.5c-1.2-1.7,1.6-4,0.4-5.9
						c0.2,0.6,1.2,1.1,1.5,1.2l-1-1.4c0.8-0.5,1.1-0.5,1.9,0.1c1.5-2.1-2.9-0.7-0.3-2.7c0,0.3,0.2,0.3,0.2,0.8c2-2.3,2-5.6,4-7.6
						c2.4,0.4-0.7,2.4,1.4,2.5c1.6-3.7,1.7-8.6,4-11.7l-0.6,0.5c-2.5-2,2.8-1.8,2.4-4.2c0,0.5,1.2,1.4,1,1.1c1.7-2.1,2-5.1,3.1-9.1
						l0.5,0.8c1.4-1,2.4-3.4,3.5-4.7c-0.5-0.8,0.1-1.6-1.2-1.7c6.6-2.3,2.7-9.9,8.3-12.1c-0.3,0.5,0,1.5,0.2,1.1l1.3-3.8
						c-1.4-0.4-1,0-2.3,0.2c-0.5-0.8-0.5-2.1,0-3c-0.1,2,2,1.1,3,0.8c-0.4-0.1-0.7-0.6-1.1-0.7c3.2-0.6-2.3-1.7,0.6-3.3l0.6,0.5
						c0.2-1.1-0.2-2.4,0.6-3.3c1.6,0.4,0.1,1.3,1.2,2c0.7-1.4-1.1-4.2,1-4.7c0.1,0.8-0.4,1.7-0.4,2.5c2.4-0.5,2.1-0.8,2.9-1.7
						l-0.1,0.1l2.1-1.9l-0.8,0.4c-2.7-3.8,1.3-3.9,0.2-7.6c1,3.5,1.1,1.1,2.6,2.2c0.8-0.4,1.8-1,2.1-0.5c-0.7-1.8,2-1.3,1-3.9
						c0.5,0.2,0.7-1.2,1.9-0.2c0.4-1.7-1.1-0.2-1.7-0.6c-0.5-3.2,5-4,4.4-8.6c0.6-3.3-0.9-4.8-0.3-7.8c1.3-0.4,1.5,1.7,1.5,1.7
						c1.5-1,2-2.1,2.1-3.7c0.3,0.5,0.8,0.5,1.6,0.4c0.5-1.1-1.5-1.7,0.1-2.7c0.4,0.6,1.2,1.4,1.5,2.2c0.2-1.5,0-3.3,0.2-4.8
						c1.1,0.2,0.9,1.5,1.2,2.3c0.4-1.7,1.3-4.2,0.1-5.4l-1,0.6c0.2-0.6,1.4,0.4,1.4,0.9c0.4,1.9-1.5,1.5-2,1.3l0.2-1.1
						c-3.5-0.7-1.6,3.9-2.8,5.7l-1.8-2l0.8,2.9c-0.8,0.1-2.2-0.3-2-1.4c-1.8,0.7,0.1,1.6-1.7,2.1c-0.3,0-0.3-0.1-0.4-0.3l-0.1,1.7
						c-0.3-0.5-1.7-0.6-0.9-1.3c-2.6,1.6-0.5,4.6-2.6,4.6v-0.3c-1.1,3.6,1.4,1.2,2,4.7l-4.9-0.6l1.4,1.2c-0.2,0.3-0.7,0.9-1.3,0.4
						c0.4,1.8,0.8,0.2,1.4,1.5c-2.3,0.8-1.8,4.8-4.5,3.7c0.9,1.3,1.8-1,1.7,1.2c-3-1-0.6,2.2-2.7,3c-1.2-1.2,0.4-2.2-1.7-1.4
						c1.9,2.2-2.1,2.5-2.3,4c1.9,1.1-0.7,3.1-1.2,5.5c-0.6-0.5-3.2,3.3-5,4.8l-0.3-0.2c1.7,1.4,0.2,3.2-0.2,4.9
						c-1.1-0.7-1.4-1.2-1.5-2.3l-0.7,1.4c0.4,0.7,0.5,1.3,0.3,2.3l-1.2-1.1c-0.9,1.8-0.3,4.6-2.6,6.4c1.3,0.9,4.8,0.2,4.3,3.2
						c-0.8-0.3-2.1-0.9-2-1.7c0,0.3,0.2,1.1-0.4,1.3L177,72c-1.1,0.8,0.7,1.1,0.1,1.9c-1-0.6-1.1,0.2-1.8-0.4c0-0.3,0.8-0.5,0.6-1
						c-0.7,0.8-2,1.7-3,1.6c0.6,0.2,1.4,0.8,1.1,1.6c-0.9,1.8-1.6-0.1-2.7,0.7c0.5,0.8-0.9,1.6,0.6,2.5c-0.3,0.5-1.1,0.2-1.6,0.2
						c0.2,1.3-2.2,4.5,0,4.3l0.2-0.2c0,0.1,0,0.1,0,0.2l0,0l0,0c-0.2,3.9-4.4,5.9-5.5,9.3l-0.5-0.3c-0.4,2.1-1.9,4.2-1.5,6.1
						c-0.3,0.5-1.7,0.7-2.1,0.2c-0.4,1.6,0.1,2.1-1.9,3.6c-0.1-1.9-1.1,0,0.1-1.8c-1.5,1.6-2.5,1.5-2.2,4.2c-1-1.4-2.4,0.4-2.5,1.5
						l1.7-0.7c-0.3,1.1-0.9,1.8-1.5,2.6l-1.5-1.4c-4.2,2.5-0.1,8.7-5.2,9.5c0.7,1.7,2-1.5,2.9,0.1c-1.2,1.6-4.7,1.9-5,2.5
						c-2.3,1.8,1.3,3.6-0.7,5.6c0.8,0,2.6,0.7,2.2,2.8c-1.2,1.6-3.8,0.6-3.7-0.7c0.2-0.4,0.5-0.5,0.7-0.4c0.1-0.7,0.2-1.5-0.8-1.2
						l0.5,0.6c-1.1,0.5-2.3,2.9-3.1,1.7c-0.1,1.6,0.7,1.1,1.6,0.3c-2.1,1.7-1.9,3.4-3.8,5.3c0.5-0.2,1.5-0.1,1.3,0.3
						c-2.6,2.9,0.4,2.1-0.6,4.5c-1.7,0.7-2-1.7-2.5,1c-1.4,1-1.8-0.6-2-1.5c0.1,2.7-2.9,3.4-3.8,4.4l0.1-1.4
						c-0.1,0.8-0.4,1.3-0.7,1.9l1.6,0.1c-0.6,0.5-0.9,1-1.4,0.7c0.5,1.1,2.3,0.7,2.7,2.6c-0.6,0.2-0.7,1-1,1.6
						c-0.1,0.3-0.3,0.6-0.5,0.7c-0.1,0-0.1,0.1-0.2,0.1s-0.1,0-0.2,0s-0.3-0.1-0.5-0.2c0.1,0,0.3-0.4,0.4-0.5
						c0.1-0.2,0.1-0.3,0.1-0.4c-0.1-0.2-0.3-0.3-0.6-0.4c-0.6-0.2-1.3-0.3-0.8-1.5c0,0.5-0.3,1.1-0.9,1.6c-0.2,0-0.3-0.3-0.3-0.5
						c-0.1,0.1-0.2,0.1-0.3,0.2l-0.1,0.1h-0.1c-0.1,0-0.1,0-0.1,0c-0.1,0-0.1,0,0,0.1s0.3,0.3,0.6,0.6c0.6,0.5,1.2,1.3,0.9,1.8
						c-0.3-0.5-0.7-0.9-1-1.1s-0.4-0.4-0.4-0.2c0.1-0.1,1.3,1.4,1.5,2.7l0,0c-0.7-0.4-0.8-0.3-0.9,0c-0.1,0.2-0.1,0.6-0.4,0.5
						c0.2,0.1,0.5,0.3,0.7,0.4c0.2,1.1-0.5,0.9-1.3,1.3c-0.2-0.8,0.7-0.6,0.3-0.9c-0.1,0.5-0.4,0.6-0.7,0.5c-0.1,0-0.3-0.1-0.4-0.2
						c-0.2-0.1-0.4-0.2-0.7-0.4c-0.9-0.6-1.9-1.2-2.9-0.6c-1-0.7-0.1-2-0.9-2.5c-2.3,1.4-2.5-1.5-5-0.3c0.7,1.4,0.8,1.1-0.9,2.5l4-1
						l-2.6,2.1c1.2,0,2.6-0.9,3.3-0.7c-1.2,1.2-1.1,0.8-0.5,2c-1.7-2.1-3.3,1.3-5.2-0.2l0.1-3.5c-2.9-1.6-5.1,1.8-8.9,0.9l1.2,0.6
						c-0.5,1.4-2.3,0.2-3.5,0.8c0.1-1.2-0.6-1.6-1.2-2.4c0,0.2-0.1,0.3-0.4,0.4c-0.1,0-0.3,0.1-0.5,0.1c-0.1,0-0.1,0.1-0.2,0.1
						c-0.3,0.2-0.7,0.5-1.1,1.7c-0.2-0.5-0.3-1-0.3-1.6c-0.2-0.1-0.5,0-0.8,0.2c-0.4,0.1-1,0.5-1.7,0.7c-0.6,0.2-1.3,0-1.6-0.8
						c0.7-0.1,1.1-0.5,1.5-0.8s0.8-0.5,1.3-0.5c-0.2-0.4-0.2-0.8-0.9-0.3c0.1-0.2,0.1-0.2-0.1-0.3c-0.2-0.2-0.6-0.4-0.9-0.6
						c-0.7-0.4-1.3-1-1-1.6c-0.7-0.1-1.8,0.4-2.3-0.6c0.2-0.2,0.5-0.3,0.5-0.3c-0.5,0.3-1.5-1.1-2.2,0.4c1.7-4.4-4.4-7.2-2.9-11
						c-1.4-1.7-3-3.7-4-5.3c0.4-0.1,0.5-0.3,0.6,0.1c-0.3-2.9-3.8,0.3-4.2-3c0.9-2.3,1.7,0.9,1.8-0.3c3.2-2.3-2.3-2.9-1.3-5.8
						l0.4,0.3c0.4-2-3.2-2.6-4.2-4.9c0,0,0.4-0.1,0.5-0.3c-2.6-0.5-4.8-3.1-6.5-4.9c1.7-0.1,1.2,0.6,2.4-0.6c-0.7-0.8-2,1.5-3.5-0.2
						c0.4-1,0.2-2.8,1.6-3.8l1.1,1.8c1.3-2-1.4-2.3-1.6-3.4l0.9-0.3c-1.8-2.6-3.9-1.5-5.4-4.5l-0.4,0.7c-2.9-0.5,0.4-2-2-2.8
						l1.8-1.7c-1.1-0.8-4.1-2.6-5.6-4.3c2.1,0.2,4.2,2,5.9,2.9c-0.6-1.1-2.2-3.5-3.5-3.5c0.4,0.3,1.2,0.6,1.2,1.2
						c-2.4-0.4-4.1-1.6-5.3-3.8c4.2-1.9-2.1-6.1,0.1-9.3c-3.6-2.9-3.6-7.8-6.2-12c-2.2,3.3-0.8-1.2-3.8,0.9
						c-0.8-0.9-0.9-1.3-0.8-1.5l0.2-4.1c0.5-1.3,1.2,0.6,1.9,0.1c-1-2.4,0.8-1.7,0.8-3.6c-1,0.9-2.1,0.2-2.3-1.4L50,59.5
						c-3.4-2.1,1.2-4.2-2.3-6.4l1.6,0.4c-1.5-1.3-3.3-5.9-6.8-6c0.2-0.5,0.9-1.4,1.5-0.8c-1.8-4-7.5-7-7.6-10.8l0.9-0.2
						c-0.6-0.6-2.2-0.4-1.9-1.8c0.3-0.1,0.9-0.2,0.8-0.5c-0.5-0.2-2.4-1.1-2.5-2.3l1.3,0.3c-1.1-4.3-5.4-4.5-7.7-7.3
						c0.6-0.3,1-0.8,1.2-1.3c0.1-0.3,0.2-0.5,0.2-0.8c0.1-0.3,0.2-0.3,0.3-0.5c0.4-0.5,0.6-0.8,0.8-0.9l0.4-0.1
						c0.1-0.2-0.6-0.4-1.8-1.1c-1.2-0.7-2.9-1.9-4.3-3.3c0,0,0,0,0-0.1c3.1,1.4,4,1.7,4.8,1.9c0.4,0.1,0.8,0.1,1.1,0.2
						c0.4,0.1,0.7,0.3,1,0.7c-0.1-0.2-0.2-0.8-0.3-1.2c-0.1-0.5,0-0.9,0.2-1.1c0.1,0.1,0.2,0.1,0.4,0l0.1-0.1l0.2-0.1
						c0.2-0.1,0.3-0.1,0.5-0.2c0.6-0.2,1-0.2,0.9,1h-0.4c0.8,2.4,3,1.7,4.8,1.8l0.3-3.2c4.5,4.6,11.9-1.7,14.4,2.4
						c1.1-0.8,2.5-0.8,3.5-1.6l-0.1,1.7c3,0.4,4.6,0.6,8.3,0.2L63,19.6c2.1,0.1,2.7-4.9,4.6-5l0.6,2.5c3.7,0,7.4,2.2,11.1-0.1
						c-0.1,0.4-0.2,1.1-0.8,1.2c1.7,0.1,6.7,1.7,6.1-1.8c0,2.3,3.8,0.2,5.8-0.8l-0.3,1.7c1.7-2.1,1.7-2.7,4.1-3.3
						c0.6,0.2,0.5,1.3-0.3,0.9c1.9,0.9,1.4-1.6,3.7-0.7l-0.8,1.1c1.9,0.1,1.8-0.4,2.8-1.7c1.2-0.7,3.6,0.4,3.9,1.9
						c0.3-0.9,1.3-2.2,2.4-1.7c0.2,0.6-0.3,0.9-0.5,1.1c3.2,1.1,4.8-1.9,6.9-0.3c0,0.6,0.2,0.8,0.4,1c-2.5,0-4.6-0.1-4.4-0.3
						c0,1.5,2.1,1.8,0.4,3.9c1.6-1.2,4.5-3.7,6.5-3c0.1,0.1,0.2,0.3,0.3,0.5l-0.2,0.2c0.5,0.2,0.9,0,1.3-0.2c0.6,0.3,1,0.4,1.7,0.5
						c0.2,1.3,2.4,0.7,3.4,0.7c-0.1-1.7,1.3-1.4,0-2.8c0.2,0.1-0.2,0.2-0.9,0.3c-0.2,0-0.3,0.1-0.4,0.2c0,0,0-0.1,0.1-0.1
						c-0.7,0-1.5,0.1-2.5,0.1c0.8-0.9,1.7-1.6,2.8-0.6c0.5-1.1,1.1-2.2,1.4-2.7c1.4,2.4,4.1,3.6,4.5,5.1c3.1-0.9,7.4-0.6,9.3-3.8
						c0.9-0.4,1,0.9,1.4,1.4c-0.5,0.3-1.1,0.3-1.4,0.7c1.8-0.8,5.3-0.3,5.7-2.5c2.2,1-1.3,2,1.8,1.7l-0.4,0.7
						c6,3.5,9.8-5.7,16.5-1.1c-0.5-0.3-0.7-0.4-0.8-0.8c7.6,2,15.8-1.9,23.3,1.3c2.1,0.6,2.4-0.8,3.7-1.8l0.5,1.8l2.2-2.1
						c3.2-1.5,5.5,4.4,9.5,1.6l-0.5-1.2c1.4,0.2,4.6-0.7,4.3,0.7c0.1-0.2,0.5-1.3,1-0.6v0.9l3.5-1.6c2.7,0.7-0.4,3.8,3.6,3.9
						c1.5-0.4,4.2-2.8,3.7-3.4c-0.6,0-1.5-0.6-1.6-1.5l1.4-0.5c0.2-2.8,1.3-5.7-2-7.6l-2.3,1.7l-0.8-1.4l2-0.1
						c-1.1-1.3-1.8-0.1-2.6,0.6c-0.2-0.7-0.5-1.2-1-1.5l-2.3,2.7c-0.3-1.1,1-2.2-0.5-2.8c-1.1,1.2,1,2.5-0.7,3.3
						c-1.1-1.3-0.8-2.3-2.1-1.2c-0.2-0.7,0.1-1.2,0.6-1.5c-1.2,0.9-3.1,0.4-3.7,1.8c-1.2-1.6-3.9,0.4-3.8-2.2
						c-0.4,0.6-2.1,2.1-3.1,2.2c2-3.2-4-0.2-3.5-3.6c-1.4,2.8-5.2,1.3-7.8,2.8c0.1-0.2,0.4-0.7,0.7-0.5c-1.4-0.2-1.9-1.1-2.8-1.6
						c-0.2,2.4-2.4,2.9-3.6,4.3c-1.8-2.3,1.1-2.8,0.5-4.9c0.1,1.9-3.1,1.9-2.5,3.5c-1.4-1.4-1.2-0.7-1.9-2.6
						c-0.2,2.9-1.3,0.5-2.4,2.3c-2-1.4-0.5-2.8-2.7-1.9C164.7,1.1,166.6,0,166.6,0z M115.5,5.1L115.5,5.1c0.4-0.1,0.8-0.1,1.1-0.1
						C116.3,5,116,5,115.5,5.1z M111.2,5.1c0.5,0.1,1.2,0.1,1.9,0.1c0.2,0.6,0,1.2-0.4,1.2C112.8,6,111.8,5.6,111.2,5.1z
						 M120.3,16.8c-0.7,0.2-0.9-0.1-1-0.4c0.3,0,0.7-0.1,1.2-0.2c0-0.1,0.1-0.1,0.1-0.2C120.5,16.3,120.4,16.6,120.3,16.8z"/>
					<path class="st0" d="M121.5,14.6c0.1,0,0.2-0.1,0.3-0.1c-0.1-0.1-0.3-0.3-0.4-0.4c-0.1,0.2-0.2,0.4-0.2,0.5
						C121.3,14.6,121.4,14.6,121.5,14.6z"/>
					<path class="st0" d="M170.4,83L170.4,83c0,0,0.1,0,0.2,0C170.6,83,170.5,83,170.4,83z"/>
					<polygon class="st0" points="51.9,1.9 51.9,2.3 52.2,2 					"/>
					<path class="st0" d="M187,65.1c0.2,0,0.3,0,0.5-0.1C187.5,65,187.3,65.1,187,65.1z"/>
					<path class="st0" d="M192.4,56.4l1.2-1C193,55.8,192.6,56.1,192.4,56.4z"/>
					<path class="st0" d="M196.9,49.9c-0.2-0.2-0.4-0.4-0.6-0.5l0,0L196.9,49.9z"/>
					<path class="st0" d="M132.9,161.1c-0.2,0-0.3,0-0.5,0.1C131.3,161.5,132,161.4,132.9,161.1z"/>
					<path class="st0" d="M152.4,125.6c0.1,0.5,0.1,1,0.1,1.4C153,126.5,153.2,126.1,152.4,125.6z"/>
					<path class="st0" d="M85.9,151.8L85.9,151.8c0-0.1-0.1-0.2-0.1-0.2L85.9,151.8z"/>
					<path class="st0" d="M151.6,128.5c0.6-0.4,0.8-0.9,0.9-1.5C152.2,127.5,151.7,127.9,151.6,128.5z"/>
					<path class="st0" d="M214.2,20.6l0.2-0.3c-0.1,0-0.2-0.1-0.2-0.2V20.6z"/>
					<path class="st0" d="M214.2,20.1v-0.5C214.2,19.8,214.1,20,214.2,20.1z"/>
					<path class="st0" d="M214.3,18.7l-0.1,1C214.4,19.4,214.6,19.1,214.3,18.7z"/>
					<path class="st0" d="M208.4,29.3l0.5,0.4C208.8,29.6,208.7,29.4,208.4,29.3z"/>
					<path class="st0" d="M207.1,32.1c0.5-0.6,2.1-1,2.2-2.1l-0.4-0.3C209.5,30.6,206.5,31,207.1,32.1z"/>
					<path class="st0" d="M194,40l1.7-2.1c-0.8,0.1-1.9,0.2-1.4-0.9C191,38.9,195.9,37.1,194,40z"/>
					<path class="st0" d="M189.2,46.7c0.4-1.4-0.8-0.4-1.1-0.7C188.1,47.1,188.2,47.3,189.2,46.7z"/>
					<path class="st0" d="M160.2,98.5l-1.3-0.9C158.6,98.7,159.5,97.9,160.2,98.5z"/>
					<polygon class="st0" points="161.6,112.3 163,111.8 162,110.7 					"/>
					<polygon class="st0" points="148.8,112.8 148.9,112.3 148.4,114.1 					"/>
					<path class="st0" d="M93.1,134.4l-1.5,1.2C92.3,136.1,94.2,135.2,93.1,134.4z"/>
					<path class="st0" d="M70.3,97.9c0.6-0.9,0.5-2.2-0.7-2.4C70,96.4,69.8,97.6,70.3,97.9z"/>
					<polygon class="st0" points="40.5,17.1 39.6,17.7 41.2,17.2 					"/>
				</g>
			</g>
		</g>
	</g>
</g>
<g class="st1">
	<g>
		<g>
			<g>
				<g>
					<path class="st2" d="M217.8,11.5c-0.3-0.5-1.4-0.9-1.6-0.1l1.4,1.5L217.8,11.5z"/>
					<path class="st2" d="M211.9,14.6c0.4,1.3,1.3,3.1,3.2,3.5c-1.2-1.8-0.4-1.6-1.9-3.6c0.2-0.8,1.3-0.9,1.8-0.5
						c-0.3-0.5,1-0.9,0.1-1.9c-1.9,0.2-2.6,1.3-2.2,3.2C212.5,15.3,212.2,14.8,211.9,14.6z"/>
					<path class="st2" d="M169.9,83.4l0.5-0.3C170.2,83.1,170,83.2,169.9,83.4z"/>
					<path class="st2" d="M144.6,126.4c0.1-0.4,0-0.6-0.1-0.7C144.5,126.1,144.4,126.4,144.6,126.4z"/>
					<path class="st2" d="M138.6,132.7c0.1-0.1,0.2-0.2,0.4-0.4C138.7,132.4,138.5,132.6,138.6,132.7z"/>
					<path class="st2" d="M169.9,83.4l-1.2,0.9C169.2,84.6,169.5,83.9,169.9,83.4z"/>
					<path class="st2" d="M210.6,26.6c0.1-0.3,0-0.6-0.1-0.9c0,0.2-0.1,0.5-0.1,0.7C210.5,26.5,210.6,26.5,210.6,26.6z"/>
					<path class="st2" d="M179.2,63.4l0.2-0.4c-0.1-0.2-0.3-0.4-0.5-0.7L179.2,63.4z"/>
					<path class="st2" d="M187.2,48.5c-0.3,0.3,1.2,1.2,1.7,1.7c-0.5-0.5-0.7-0.9-0.6-1.3C188,48.8,187.7,48.6,187.2,48.5z"/>
					<path class="st2" d="M202.8,26.6v-0.5C202.9,26.2,202.8,26.4,202.8,26.6z"/>
					<path class="st2" d="M173,73.7c-0.2-0.1-0.5-0.2-0.6-0.2C172.6,73.7,172.8,73.7,173,73.7z"/>
					<path class="st2" d="M194.7,1.7c0,0.1,0,0.2,0,0.3C194.8,1.8,194.9,1.7,194.7,1.7z"/>
					<path class="st2" d="M214.3,10l-0.3,0.1c0,0.3-0.1,0.6-0.1,0.9L214.3,10z"/>
					<path class="st2" d="M129.1,145.3L129.1,145.3C129.2,144.8,129.1,145,129.1,145.3z"/>
					<path class="st2" d="M53.7,63.2c-0.5,2.2-3-1.3-3.2,1.6C50.9,64.3,53.8,65.5,53.7,63.2z"/>
					<path class="st2" d="M210.2,26.9c-0.1,0.2-0.2,0.4-0.3,0.6C210.1,27.3,210.2,27.1,210.2,26.9z"/>
					<path class="st2" d="M50.4,64.8L50.4,64.8v0.3C50.4,65,50.4,65,50.4,64.8z"/>
					<path class="st2" d="M103.5,147.4c0.1,0.3,0.2,0.5,0.4,0.7C103.8,148,103.7,147.7,103.5,147.4z"/>
					<path class="st2" d="M128.9,149.8l-0.4-0.2C128.7,149.7,128.8,149.8,128.9,149.8z"/>
					<path class="st2" d="M97.7,145.5c-0.1-0.4,0.1-0.6-0.4-0.9c-0.1,0.1-0.1,0.2-0.1,0.2C97.5,144.8,97.7,145,97.7,145.5z"/>
					<path class="st2" d="M90.6,132.9c-0.1,0.1-0.1,0.3-0.2,0.4c0.1,0.1,0.2,0.2,0.3,0.4L90.6,132.9z"/>
					<path class="st2" d="M150.8,2.5c0.3,0.5,0.5,1,0.7,1.5C151.2,2.8,153.4,2.4,150.8,2.5z"/>
					<path class="st2" d="M209.8,26.2c0.3,0.3,0.5,0.5,0.4,0.7c0.1-0.2,0.1-0.3,0.2-0.5C210.2,26.3,210,26.1,209.8,26.2z"/>
					<path class="st2" d="M85.8,151.5l-0.9-2.1C85.1,150,85.4,150.8,85.8,151.5z"/>
					<path class="st2" d="M47.1,2.7l0.5-0.2C47.4,2.5,47.2,2.5,47.1,2.7z"/>
					<path class="st2" d="M81.3,143.6c0.3-0.6,0.4-1.2,0.4-1.7c-0.2,0-0.3-0.1-0.5,0L81.3,143.6z"/>
					<path class="st2" d="M151.5,4L151.5,4L151.5,4z"/>
					<path class="st2" d="M166.6,0c-2.2,0-1,2.2-1.5,3.4c-2.6,0.6-1.2-1.6-2.1-2.8c-1.6,0.6-2.9,2.6-4.1,2.5c-0.1-0.4-0.3-0.5-0.1-1
						c-1.7,1.8-5.1,0.1-7.1,2.3c-0.1-0.2-0.2-0.4-0.3-0.5c0.3,1.1,0.4,2.2,0.3,3c-1,0-1.8,1.4-2.2,0c0.6,0,0.7-0.5,0.9-1l-1,0.6
						c-0.9-2.1,1.4-0.7,1.4-2.3c-2,0.7-4.3,2.4-5.9,1.8c-0.3-2,3.6-0.7,1.5-2.5l2.4,0.8c-1.8-3.2,1.4,0.2-0.2-3.2
						c-3.1-0.6-3.5,1-6.6,0.4c-0.7,1.1,0.2,1.7-0.5,2.8c-4.4,2-3.5-5.1-6.8-2.4c-0.8,1.4-1.2,3.9-3.5,2.6l0.8-2.3
						c-3-0.2-1.7,3.3-4.9,1.8c0.6-0.9,2.4-0.8,1.9-1c-2.1-1.8-1.5,1.3-3,1.3l-0.3-2c-3.2,0.3-6.8,1.8-10.3,2.2
						c0.2-0.6,0.8-1.2,0-1.9c-4.5,1-9.6-0.2-14-1.5l-1.7,1.8c-0.4,0-0.7-0.8-0.3-1.1c-1.7-0.7-0.1,1.1-0.9,1.8c-1,0.1-1.3-1-0.7-1.5
						c-3,1.5-8.5,3.2-11.7,1.3l0.6-0.5c-2.5-0.7-2.8,3.6-5,2l0.4-0.3c-5.3-0.8-11.2,0.8-15.3-1.8c-0.8,2.5-5.3-1.1-5.6,2.4
						c-3-1.8-2.2-2.4-6.4-3.6c-1.1-0.2-1.7,2.2-3.1,2.6V2.4l-1.9,1.9l-1-2.2l-1.3,0.5c0.5,0.1,1.1,0.8,1,1.4c-2.1,0.8-5-1.3-5.1-2.2
						l-4.9,1.6c0.1-0.7,0.9-1,1.6-1.5c-2.6,1.9-0.5-1.9-2.9-0.2C37.5,2.1,37,2.8,37,3.2c-0.6-0.6-1.6-0.8-2.7-0.9
						c-0.5,0-1.1,0-1.7,0c-0.7,0.1-1.5,0.2-2.1,0.3c0.2-0.4,0.4-0.8,0.6-1.3c-3.4-0.2-7.1,0-10.6,0.2c-3.6,0.2-7,0.4-10.7,0.4
						c3.4,0.6,5.1,2.8,3.6,3c-1.1-0.7-2.1-1.3-3.3-2c0.1,0.6,0.9,0.8,1.5,1s1.1,0.5,0.9,1.2C10,4.9,7.7,2.9,8.4,2.2
						C7.6,2.4,6.9,2.7,6.2,2.9C5.1,2.3,5.4,2,4.5,1.3C4.7,1.9,2.3,1.4,0,1c0.1,1,0.7,2.3,2.8,4L2,4.7c1.9,3.4,3.6,6,5.1,8.3
						s2.9,4.4,4.5,7.1c2,0,2.7,2.1,4.8,3.1c0.3,0.9,0.6,1.8,1,2.8c0.2,0.5,0.4,1,0.5,1.5c0.1,0.3,0.2,0.7,0.2,1
						c0.3,1.4,0.8,2.7,1.6,4c1.7,1.4,1.5-0.2,2.9,0.1c-1.3,0.9,0.3,3.4-1.4,2.6c2,2.9,2.5,3.8,5.8,7c0.3-0.7,0.3-1.3,0.9-1.4
						c0.6,0.6,0.3,1.9-0.4,2.2l-0.2-0.1c4.5,3.2,1.8,12.3,6.5,14.2L33.6,57l3.5,2.8c0.7,1.8-1.6-0.4-1.7,1.3
						c4.4,2.6,3.1,6.3,6.4,8.7c-2.5,4.7,5.2,8.6,4.6,13.4l0.8-0.7c1.4,0.3,0.1,1.3,0.2,2.1c0.7-0.5,0.3-1.4,1.1-1.2
						c5.3,6.7,7.2,15.9,10.6,23.8c1.3,2.9,5.7-1.2,5.4,3.5h-2.3c5.2,4.4,6.3,11.4,11.1,15.8c-0.6-0.1-1.1,0.2-1.4-0.3
						c-0.6,1.9,2.3,4.3,3.4,3.7c0.4,0.9-0.8,0.7-1,1.5c-0.1,1.6,3.2,2,2.3,3.3c-0.1,0.2-0.6-0.1-0.8-0.2c1,0.4,1.8,3.6,2.9,2
						c0.5,2.4,2.8,3.5,2.9,5.6c2.2,0.1,1.2,3.9,3.7,3c-2.4,1.2,0.1,4.6,1.9,5.3c-1,0-0.1,1.5-1.4,1.6c0.4,0.7,0.9,1.4,1.5,1.7
						c0.1,0,0.1,0.1,0.2,0.1c0.1,0.1,0.2,0.1,0.3,0.2c0.2,0.1,0.3,0.2,0.5,0.2c0.3,0.1,0.6,0,0.8-0.3c0,1.8,0.6,3.4,1.5,4.6
						c0.8,1.3,1.8,2.2,2.6,3c2.2-0.4,3.6-0.4,4.5,1.3c1.2-0.2,2.3-0.4,3.5-0.5c0.5-0.1,1.1-0.2,1.6-0.2l0.9-0.2
						c1.2-0.3,2.4-0.6,3.6-0.8c2.3-0.5,4.6-0.9,6.9-1.2c-0.2,2.7-5,0.3-4.8,3.1c4.3-1.1,6.7-3.4,11-2.8c1.1,0.4-0.6,1.2-1,1.6
						c2.1-0.6,4.2-0.5,6.2-0.5c0.5,0,1,0,1.5,0h1l1.2-0.1c1.6-0.1,3.2-0.3,4.5-0.7c0.1,0.3-0.5,0.5-1,0.7c1.2-0.1,3.1,0.4,2.3-0.8
						l-1,0.3c-0.8-0.5-0.8-1.1-0.5-1.6s0.8-1.1,1.3-1.5c0.1-1.5,0.1-2.6-0.1-3c0.8,2.2,1.5,1.4,2.3,0.6c0.4-0.4,0.8-0.7,1.3-0.6
						c0.4,0.1,0.9,0.6,1.4,2.1c0.2-0.9,0.3-2.1-0.5-2.5c0.7-0.8,1.3-0.9,1.5,0.7c0.2-0.5,0.4-1,0.5-1.4s0.2-0.8,0.1-0.9
						c0-0.4-0.1-0.7-0.2-1c-0.2-0.5-0.3-1,0.3-2.1c0.5,0.3,0.5,0.8,1,1.4c-0.4-1.6-0.8-3.3,0.6-4.8c0.3,0.3,0.8,0.3,0.5,0.8
						c1.6-3.2,0.2-6.8,3.1-9.6c1.7,2.3,1.4-0.7,3.4,0.2l0.4-2.1l-1.4,0.2c0.9-1.6,0.3-3.8,1.7-4.8l0.1,1.6l1.3-3.2l-1.7,1.3
						c-0.1-2.2-2.6-1.2-0.8-3c0,0.5,0.9-1.6,2.5-1.8l0,0c-0.2-1.1-0.4-2.3,0.8-3.2c0.8,0,2,1.5,2.6,1.5c-1.2-1.7,1.6-4,0.4-5.9
						c0.2,0.6,1.2,1.1,1.5,1.2l-1-1.4c0.8-0.5,1.1-0.5,1.9,0.1c1.5-2.1-2.9-0.7-0.3-2.7c0,0.3,0.2,0.3,0.2,0.8c2-2.3,2-5.6,4-7.6
						c2.4,0.4-0.7,2.4,1.4,2.5c1.6-3.7,1.7-8.6,4-11.7l-0.6,0.5c-2.5-2,2.8-1.8,2.4-4.2c0,0.5,1.2,1.4,1,1.1c1.7-2.1,2-5.1,3.1-9.1
						l0.5,0.8c1.4-1,2.4-3.4,3.5-4.7c-0.5-0.8,0.1-1.6-1.2-1.7c6.6-2.3,2.7-9.9,8.3-12.1c-0.3,0.5,0,1.5,0.2,1.1l1.3-3.8
						c-1.4-0.4-1,0-2.3,0.2c-0.5-0.8-0.5-2.1,0-3c-0.1,2,2,1.1,3,0.8c-0.4-0.1-0.7-0.6-1.1-0.7c3.2-0.6-2.3-1.7,0.6-3.3l0.6,0.5
						c0.2-1.1-0.2-2.4,0.6-3.3c1.6,0.4,0.1,1.3,1.2,2c0.7-1.4-1.1-4.2,1-4.7c0.1,0.8-0.4,1.7-0.4,2.5c2.4-0.5,2.1-0.8,2.9-1.7
						l-0.1,0.1l2.1-1.9l-0.8,0.4c-2.7-3.8,1.3-3.9,0.2-7.6c1,3.5,1.1,1.1,2.6,2.2c0.8-0.4,1.8-1,2.1-0.5c-0.7-1.8,2-1.3,1-3.9
						c0.5,0.2,0.7-1.2,1.9-0.2c0.4-1.7-1.1-0.2-1.7-0.6c-0.5-3.2,5-4,4.4-8.6c0.6-3.3-0.9-4.8-0.3-7.8c1.3-0.4,1.5,1.7,1.5,1.7
						c1.5-1,2-2.1,2.1-3.7c0.3,0.5,0.8,0.5,1.6,0.4c0.5-1.1-1.5-1.7,0.1-2.7c0.4,0.6,1.2,1.4,1.5,2.2c0.2-1.5,0-3.3,0.2-4.8
						c1.1,0.2,0.9,1.5,1.2,2.3c0.4-1.7,1.3-4.2,0.1-5.4l-1,0.6c0.2-0.6,1.4,0.4,1.4,0.9c0.4,1.9-1.5,1.5-2,1.3l0.2-1.1
						c-3.5-0.7-1.6,3.9-2.8,5.7l-1.8-2l0.8,2.9c-0.8,0.1-2.2-0.3-2-1.4c-1.8,0.7,0.1,1.6-1.7,2.1c-0.3,0-0.3-0.1-0.4-0.3l-0.1,1.7
						c-0.3-0.5-1.7-0.6-0.9-1.3c-2.6,1.6-0.5,4.6-2.6,4.6v-0.3c-1.1,3.6,1.4,1.2,2,4.7l-4.9-0.6l1.4,1.2c-0.2,0.3-0.7,0.9-1.3,0.4
						c0.4,1.8,0.8,0.2,1.4,1.5c-2.3,0.8-1.8,4.8-4.5,3.7c0.9,1.3,1.8-1,1.7,1.2c-3-1-0.6,2.2-2.7,3c-1.2-1.2,0.4-2.2-1.7-1.4
						c1.9,2.2-2.1,2.5-2.3,4c1.9,1.1-0.7,3.1-1.2,5.5c-0.6-0.5-3.2,3.3-5,4.8l-0.3-0.2c1.7,1.4,0.2,3.2-0.2,4.9
						c-1.1-0.7-1.4-1.2-1.5-2.3l-0.7,1.4c0.4,0.7,0.5,1.3,0.3,2.3l-1.2-1.1c-0.9,1.8-0.3,4.6-2.6,6.4c1.3,0.9,4.8,0.2,4.3,3.2
						c-0.8-0.3-2.1-0.9-2-1.7c0,0.3,0.2,1.1-0.4,1.3L177,72c-1.1,0.8,0.7,1.1,0.1,1.9c-1-0.6-1.1,0.2-1.8-0.4c0-0.3,0.8-0.5,0.6-1
						c-0.7,0.8-2,1.7-3,1.6c0.6,0.2,1.4,0.8,1.1,1.6c-0.9,1.8-1.6-0.1-2.7,0.7c0.5,0.8-0.9,1.6,0.6,2.5c-0.3,0.5-1.1,0.2-1.6,0.2
						c0.2,1.3-2.2,4.5,0,4.3l0.2-0.2c0,0.1,0,0.1,0,0.2l0,0l0,0c-0.2,3.9-4.4,5.9-5.5,9.3l-0.5-0.3c-0.4,2.1-1.9,4.2-1.5,6.1
						c-0.3,0.5-1.7,0.7-2.1,0.2c-0.4,1.6,0.1,2.1-1.9,3.6c-0.1-1.9-1.1,0,0.1-1.8c-1.5,1.6-2.5,1.5-2.2,4.2c-1-1.4-2.4,0.4-2.5,1.5
						l1.7-0.7c-0.3,1.1-0.9,1.8-1.5,2.6l-1.5-1.4c-4.2,2.5-0.1,8.7-5.2,9.5c0.7,1.7,2-1.5,2.9,0.1c-1.2,1.6-4.7,1.9-5,2.5
						c-2.3,1.8,1.3,3.6-0.7,5.6c0.8,0,2.6,0.7,2.2,2.8c-1.2,1.6-3.8,0.6-3.7-0.7c0.2-0.4,0.5-0.5,0.7-0.4c0.1-0.7,0.2-1.5-0.8-1.2
						l0.5,0.6c-1.1,0.5-2.3,2.9-3.1,1.7c-0.1,1.6,0.7,1.1,1.6,0.3c-2.1,1.7-1.9,3.4-3.8,5.3c0.5-0.2,1.5-0.1,1.3,0.3
						c-2.6,2.9,0.4,2.1-0.6,4.5c-1.7,0.7-2-1.7-2.5,1c-1.4,1-1.8-0.6-2-1.5c0.1,2.7-2.9,3.4-3.8,4.4l0.1-1.4
						c-0.1,0.8-0.4,1.3-0.7,1.9l1.6,0.1c-0.6,0.5-0.9,1-1.4,0.7c0.5,1.1,2.3,0.7,2.7,2.6c-0.6,0.2-0.7,1-1,1.6
						c-0.1,0.3-0.3,0.6-0.5,0.7c-0.1,0-0.1,0.1-0.2,0.1s-0.1,0-0.2,0s-0.3-0.1-0.5-0.2c0.1,0,0.3-0.4,0.4-0.5
						c0.1-0.2,0.1-0.3,0.1-0.4c-0.1-0.2-0.3-0.3-0.6-0.4c-0.6-0.2-1.3-0.3-0.8-1.5c0,0.5-0.3,1.1-0.9,1.6c-0.2,0-0.3-0.3-0.3-0.5
						c-0.1,0.1-0.2,0.1-0.3,0.2l-0.1,0.1h-0.1c-0.1,0-0.1,0-0.1,0c-0.1,0-0.1,0,0,0.1s0.3,0.3,0.6,0.6c0.6,0.5,1.2,1.3,0.9,1.8
						c-0.3-0.5-0.7-0.9-1-1.1s-0.4-0.4-0.4-0.2c0.1-0.1,1.3,1.4,1.5,2.7l0,0c-0.7-0.4-0.8-0.3-0.9,0c-0.1,0.2-0.1,0.6-0.4,0.5
						c0.2,0.1,0.5,0.3,0.7,0.4c0.2,1.1-0.5,0.9-1.3,1.3c-0.2-0.8,0.7-0.6,0.3-0.9c-0.1,0.5-0.4,0.6-0.7,0.5c-0.1,0-0.3-0.1-0.4-0.2
						c-0.2-0.1-0.4-0.2-0.7-0.4c-0.9-0.6-1.9-1.2-2.9-0.6c-1-0.7-0.1-2-0.9-2.5c-2.3,1.4-2.5-1.5-5-0.3c0.7,1.4,0.8,1.1-0.9,2.5l4-1
						l-2.6,2.1c1.2,0,2.6-0.9,3.3-0.7c-1.2,1.2-1.1,0.8-0.5,2c-1.7-2.1-3.3,1.3-5.2-0.2l0.1-3.5c-2.9-1.6-5.1,1.8-8.9,0.9l1.2,0.6
						c-0.5,1.4-2.3,0.2-3.5,0.8c0.1-1.2-0.6-1.6-1.2-2.4c0,0.2-0.1,0.3-0.4,0.4c-0.1,0-0.3,0.1-0.5,0.1c-0.1,0-0.1,0.1-0.2,0.1
						c-0.3,0.2-0.7,0.5-1.1,1.7c-0.2-0.5-0.3-1-0.3-1.6c-0.2-0.1-0.5,0-0.8,0.2c-0.4,0.1-1,0.5-1.7,0.7c-0.6,0.2-1.3,0-1.6-0.8
						c0.7-0.1,1.1-0.5,1.5-0.8s0.8-0.5,1.3-0.5c-0.2-0.4-0.2-0.8-0.9-0.3c0.1-0.2,0.1-0.2-0.1-0.3c-0.2-0.2-0.6-0.4-0.9-0.6
						c-0.7-0.4-1.3-1-1-1.6c-0.7-0.1-1.8,0.4-2.3-0.6c0.2-0.2,0.5-0.3,0.5-0.3c-0.5,0.3-1.5-1.1-2.2,0.4c1.7-4.4-4.4-7.2-2.9-11
						c-1.4-1.7-3-3.7-4-5.3c0.4-0.1,0.5-0.3,0.6,0.1c-0.3-2.9-3.8,0.3-4.2-3c0.9-2.3,1.7,0.9,1.8-0.3c3.2-2.3-2.3-2.9-1.3-5.8
						l0.4,0.3c0.4-2-3.2-2.6-4.2-4.9c0,0,0.4-0.1,0.5-0.3c-2.6-0.5-4.8-3.1-6.5-4.9c1.7-0.1,1.2,0.6,2.4-0.6c-0.7-0.8-2,1.5-3.5-0.2
						c0.4-1,0.2-2.8,1.6-3.8l1.1,1.8c1.3-2-1.4-2.3-1.6-3.4l0.9-0.3c-1.8-2.6-3.9-1.5-5.4-4.5l-0.4,0.7c-2.9-0.5,0.4-2-2-2.8
						l1.8-1.7c-1.1-0.8-4.1-2.6-5.6-4.3c2.1,0.2,4.2,2,5.9,2.9c-0.6-1.1-2.2-3.5-3.5-3.5c0.4,0.3,1.2,0.6,1.2,1.2
						c-2.4-0.4-4.1-1.6-5.3-3.8c4.2-1.9-2.1-6.1,0.1-9.3c-3.6-2.9-3.6-7.8-6.2-12c-2.2,3.3-0.8-1.2-3.8,0.9
						c-0.8-0.9-0.9-1.3-0.8-1.5l0.2-4.1c0.5-1.3,1.2,0.6,1.9,0.1c-1-2.4,0.8-1.7,0.8-3.6c-1,0.9-2.1,0.2-2.3-1.4L50,59.5
						c-3.4-2.1,1.2-4.2-2.3-6.4l1.6,0.4c-1.5-1.3-3.3-5.9-6.8-6c0.2-0.5,0.9-1.4,1.5-0.8c-1.8-4-7.5-7-7.6-10.8l0.9-0.2
						c-0.6-0.6-2.2-0.4-1.9-1.8c0.3-0.1,0.9-0.2,0.8-0.5c-0.5-0.2-2.4-1.1-2.5-2.3l1.3,0.3c-1.1-4.3-5.4-4.5-7.7-7.3
						c0.6-0.3,1-0.8,1.2-1.3c0.1-0.3,0.2-0.5,0.2-0.8c0.1-0.3,0.2-0.3,0.3-0.5c0.4-0.5,0.6-0.8,0.8-0.9l0.4-0.1
						c0.1-0.2-0.6-0.4-1.8-1.1c-1.2-0.7-2.9-1.9-4.3-3.3c0,0,0,0,0-0.1c3.1,1.4,4,1.7,4.8,1.9c0.4,0.1,0.8,0.1,1.1,0.2
						c0.4,0.1,0.7,0.3,1,0.7c-0.1-0.2-0.2-0.8-0.3-1.2c-0.1-0.5,0-0.9,0.2-1.1c0.1,0.1,0.2,0.1,0.4,0l0.1-0.1l0.2-0.1
						c0.2-0.1,0.3-0.1,0.5-0.2c0.6-0.2,1-0.2,0.9,1h-0.4c0.8,2.4,3,1.7,4.8,1.8l0.3-3.2c4.5,4.6,11.9-1.7,14.4,2.4
						c1.1-0.8,2.5-0.8,3.5-1.6l-0.1,1.7c3,0.4,4.6,0.6,8.3,0.2L63,19.6c2.1,0.1,2.7-4.9,4.6-5l0.6,2.5c3.7,0,7.4,2.2,11.1-0.1
						c-0.1,0.4-0.2,1.1-0.8,1.2c1.7,0.1,6.7,1.7,6.1-1.8c0,2.3,3.8,0.2,5.8-0.8l-0.3,1.7c1.7-2.1,1.7-2.7,4.1-3.3
						c0.6,0.2,0.5,1.3-0.3,0.9c1.9,0.9,1.4-1.6,3.7-0.7l-0.8,1.1c1.9,0.1,1.8-0.4,2.8-1.7c1.2-0.7,3.6,0.4,3.9,1.9
						c0.3-0.9,1.3-2.2,2.4-1.7c0.2,0.6-0.3,0.9-0.5,1.1c3.2,1.1,4.8-1.9,6.9-0.3c0,0.6,0.2,0.8,0.4,1c-2.5,0-4.6-0.1-4.4-0.3
						c0,1.5,2.1,1.8,0.4,3.9c1.6-1.2,4.5-3.7,6.5-3c0.1,0.1,0.2,0.3,0.3,0.5l-0.2,0.2c0.5,0.2,0.9,0,1.3-0.2c0.6,0.3,1,0.4,1.7,0.5
						c0.2,1.3,2.4,0.7,3.4,0.7c-0.1-1.7,1.3-1.4,0-2.8c0.2,0.1-0.2,0.2-0.9,0.3c-0.2,0-0.3,0.1-0.4,0.2c0,0,0-0.1,0.1-0.1
						c-0.7,0-1.5,0.1-2.5,0.1c0.8-0.9,1.7-1.6,2.8-0.6c0.5-1.1,1.1-2.2,1.4-2.7c1.4,2.4,4.1,3.6,4.5,5.1c3.1-0.9,7.4-0.6,9.3-3.8
						c0.9-0.4,1,0.9,1.4,1.4c-0.5,0.3-1.1,0.3-1.4,0.7c1.8-0.8,5.3-0.3,5.7-2.5c2.2,1-1.3,2,1.8,1.7l-0.4,0.7
						c6,3.5,9.8-5.7,16.5-1.1c-0.5-0.3-0.7-0.4-0.8-0.8c7.6,2,15.8-1.9,23.3,1.3c2.1,0.6,2.4-0.8,3.7-1.8l0.5,1.8l2.2-2.1
						c3.2-1.5,5.5,4.4,9.5,1.6l-0.5-1.2c1.4,0.2,4.6-0.7,4.3,0.7c0.1-0.2,0.5-1.3,1-0.6v0.9l3.5-1.6c2.7,0.7-0.4,3.8,3.6,3.9
						c1.5-0.4,4.2-2.8,3.7-3.4c-0.6,0-1.5-0.6-1.6-1.5l1.4-0.5c0.2-2.8,1.3-5.7-2-7.6l-2.3,1.7l-0.8-1.4l2-0.1
						c-1.1-1.3-1.8-0.1-2.6,0.6c-0.2-0.7-0.5-1.2-1-1.5l-2.3,2.7c-0.3-1.1,1-2.2-0.5-2.8c-1.1,1.2,1,2.5-0.7,3.3
						c-1.1-1.3-0.8-2.3-2.1-1.2c-0.2-0.7,0.1-1.2,0.6-1.5c-1.2,0.9-3.1,0.4-3.7,1.8c-1.2-1.6-3.9,0.4-3.8-2.2
						c-0.4,0.6-2.1,2.1-3.1,2.2c2-3.2-4-0.2-3.5-3.6c-1.4,2.8-5.2,1.3-7.8,2.8c0.1-0.2,0.4-0.7,0.7-0.5c-1.4-0.2-1.9-1.1-2.8-1.6
						c-0.2,2.4-2.4,2.9-3.6,4.3c-1.8-2.3,1.1-2.8,0.5-4.9c0.1,1.9-3.1,1.9-2.5,3.5c-1.4-1.4-1.2-0.7-1.9-2.6
						c-0.2,2.9-1.3,0.5-2.4,2.3c-2-1.4-0.5-2.8-2.7-1.9C164.7,1.1,166.6,0,166.6,0z M115.5,5.1L115.5,5.1c0.4-0.1,0.8-0.1,1.1-0.1
						C116.3,5,116,5,115.5,5.1z M111.2,5.1c0.5,0.1,1.2,0.1,1.9,0.1c0.2,0.6,0,1.2-0.4,1.2C112.8,6,111.8,5.6,111.2,5.1z
						 M120.3,16.8c-0.7,0.2-0.9-0.1-1-0.4c0.3,0,0.7-0.1,1.2-0.2c0-0.1,0.1-0.1,0.1-0.2C120.5,16.3,120.4,16.6,120.3,16.8z"/>
					<path class="st2" d="M121.5,14.6c0.1,0,0.2-0.1,0.3-0.1c-0.1-0.1-0.3-0.3-0.4-0.4c-0.1,0.2-0.2,0.4-0.2,0.5
						C121.3,14.6,121.4,14.6,121.5,14.6z"/>
					<path class="st2" d="M170.4,83L170.4,83c0,0,0.1,0,0.2,0C170.6,83,170.5,83,170.4,83z"/>
					<polygon class="st2" points="51.9,1.9 51.9,2.3 52.2,2 					"/>
					<path class="st2" d="M187,65.1c0.2,0,0.3,0,0.5-0.1C187.5,65,187.3,65.1,187,65.1z"/>
					<path class="st2" d="M192.4,56.4l1.2-1C193,55.8,192.6,56.1,192.4,56.4z"/>
					<path class="st2" d="M196.9,49.9c-0.2-0.2-0.4-0.4-0.6-0.5l0,0L196.9,49.9z"/>
					<path class="st2" d="M132.9,161.1c-0.2,0-0.3,0-0.5,0.1C131.3,161.5,132,161.4,132.9,161.1z"/>
					<path class="st2" d="M152.4,125.6c0.1,0.5,0.1,1,0.1,1.4C153,126.5,153.2,126.1,152.4,125.6z"/>
					<path class="st2" d="M85.9,151.8L85.9,151.8c0-0.1-0.1-0.2-0.1-0.2L85.9,151.8z"/>
					<path class="st2" d="M151.6,128.5c0.6-0.4,0.8-0.9,0.9-1.5C152.2,127.5,151.7,127.9,151.6,128.5z"/>
					<path class="st2" d="M214.2,20.6l0.2-0.3c-0.1,0-0.2-0.1-0.2-0.2V20.6z"/>
					<path class="st2" d="M214.2,20.1v-0.5C214.2,19.8,214.1,20,214.2,20.1z"/>
					<path class="st2" d="M214.3,18.7l-0.1,1C214.4,19.4,214.6,19.1,214.3,18.7z"/>
					<path class="st2" d="M208.4,29.3l0.5,0.4C208.8,29.6,208.7,29.4,208.4,29.3z"/>
					<path class="st2" d="M207.1,32.1c0.5-0.6,2.1-1,2.2-2.1l-0.4-0.3C209.5,30.6,206.5,31,207.1,32.1z"/>
					<path class="st2" d="M194,40l1.7-2.1c-0.8,0.1-1.9,0.2-1.4-0.9C191,38.9,195.9,37.1,194,40z"/>
					<path class="st2" d="M189.2,46.7c0.4-1.4-0.8-0.4-1.1-0.7C188.1,47.1,188.2,47.3,189.2,46.7z"/>
					<path class="st2" d="M160.2,98.5l-1.3-0.9C158.6,98.7,159.5,97.9,160.2,98.5z"/>
					<polygon class="st2" points="161.6,112.3 163,111.8 162,110.7 					"/>
					<polygon class="st2" points="148.8,112.8 148.9,112.3 148.4,114.1 					"/>
					<path class="st2" d="M93.1,134.4l-1.5,1.2C92.3,136.1,94.2,135.2,93.1,134.4z"/>
					<path class="st2" d="M70.3,97.9c0.6-0.9,0.5-2.2-0.7-2.4C70,96.4,69.8,97.6,70.3,97.9z"/>
					<polygon class="st2" points="40.5,17.1 39.6,17.7 41.2,17.2 					"/>
				</g>
			</g>
		</g>
	</g>
</g>
</svg>
